<svg xmlns="http://www.w3.org/2000/svg" viewBox="0 0 64 64">
  <defs>
    <linearGradient id="gold" x1="20" y1="8" x2="44" y2="48" gradientUnits="userSpaceOnUse">
      <stop offset="0" stop-color="#fff1a8"/>
      <stop offset="0.22" stop-color="#d8a33a"/>
      <stop offset="0.52" stop-color="#8c5519"/>
      <stop offset="0.78" stop-color="#d7a145"/>
      <stop offset="1" stop-color="#f6dc79"/>
    </linearGradient>
    <linearGradient id="gold-dark" x1="23" y1="16" x2="41" y2="50" gradientUnits="userSpaceOnUse">
      <stop offset="0" stop-color="#b37723"/>
      <stop offset="1" stop-color="#4c2c10"/>
    </linearGradient>
  </defs>

  <g fill="#ffffff">
    <path d="M31.4 14.7c0-7.1-5.8-12.9-13-12.9H5.5C3.1 1.8 1.2 3.8 1.2 6.2v8.5h14.3c-8.1 0-14.3 6.5-14.3 14.5v11.9h30.2V28.2H16.8c8.1 0 14.6-5.8 14.6-13.5z"/>
    <path d="M62.8 48.8c0-8.1-6.5-14.6-14.6-14.6h14.6V21.3c0-7.2-5.8-13-13-13H34.1v12.9h13.8c-7.6.5-13.8 6.8-13.8 14.5v13.9c0 7.2 5.8 13 13 13h11.4c2.4 0 4.3-1.9 4.3-4.3v-9.5z"/>
  </g>

  <g aria-label="World Cup trophy">
    <ellipse cx="32" cy="17.7" rx="8.3" ry="9.1" fill="url(#gold)"/>
    <path d="M25.6 18.9c-4.1 1.1-6.7 4.3-6.7 8.5 0 3.1 1.8 5.8 4.7 7.1.7.3 1.3-.5.7-1.1-1.8-1.7-2.8-3.9-2.8-6.1 0-2.9 1.6-5.2 4.5-6.2z" fill="url(#gold-dark)"/>
    <path d="M38.4 18.9c4.1 1.1 6.7 4.3 6.7 8.5 0 3.1-1.8 5.8-4.7 7.1-.7.3-1.3-.5-.7-1.1 1.8-1.7 2.8-3.9 2.8-6.1 0-2.9-1.6-5.2-4.5-6.2z" fill="url(#gold-dark)"/>
    <path d="M27.2 22.1c1.9 4 2.5 7.7 1.5 11.2l-3.4 12.5h13.4l-3.4-12.5c-1-3.5-.4-7.2 1.5-11.2-2.7 2-6.9 2-9.6 0z" fill="url(#gold)"/>
    <path d="M28.8 31.9c3.1-2.8 5.4-6.9 6.5-12.1 1.9 4.5 1.2 9.5-1.9 15l2.5 11h-4.1z" fill="#6c3c12" opacity=".42"/>
    <path d="M24.4 45h15.2l1.1 3.7H23.3z" fill="#0c6b4f"/>
    <path d="M22.1 48.1h19.8l1 4.2H21.1z" fill="url(#gold)"/>
    <path d="M20.8 52h22.4v3.7H20.8z" fill="#6b3f16"/>
    <path d="M26.8 46.3h10.4" stroke="#fff1a8" stroke-width=".9" stroke-linecap="round" opacity=".9"/>
  </g>

  <text x="32" y="59.3" text-anchor="middle" font-family="Arial Black, Arial, sans-serif" font-size="10.7" font-weight="900" fill="#050505" letter-spacing=".8">FIFA</text>
</svg>
