<svg xmlns="http://www.w3.org/2000/svg" viewBox="0 0 64 64">
  <rect width="64" height="64" rx="14" fill="#111827"/>
  <g transform="translate(8 23) scale(.086)" fill="#ffffff">
    <path d="M272.13,68c0-37.56-30.46-68-68.03-68h-0.01H68.03C30.46,0,0,30.45,0,68h68.03C30.46,68,0,98.44,0,136v68l272.13-0.01v-68H204.1C241.67,136,272.13,105.55,272.13,68z"/>
    <path d="M554.01,136c0-37.56-30.46-68-68.03-68h68.03c0-37.55-30.46-68-68.03-68H349.91c-37.58,0-68.03,30.45-68.03,68v68V136c0,37.56,30.46,68,68.03,68h136.07C523.55,204,554.01,173.55,554.01,136z"/>
  </g>
</svg>
